<svg xmlns="http://www.w3.org/2000/svg" xmlns:xlink="http://www.w3.org/1999/xlink" id="Capa_1" x="0px" y="0px" viewBox="0 0 511.984 511.984" style="enable-background:new 0 0 511.984 511.984;" xml:space="preserve" width="512" height="512"><g>	<g>					<line style="fill:none;stroke:#000000;stroke-width:15;stroke-linecap:round;stroke-linejoin:round;stroke-miterlimit:10;" x1="130.765" y1="246.204" x2="130.765" y2="212.355"></line>		<path style="fill:none;stroke:#000000;stroke-width:15;stroke-linecap:round;stroke-linejoin:round;stroke-miterlimit:10;" d="&#10;&#9;&#9;&#9;M202.933,37.501h273.081c14.78,0,26.759,11.98,26.759,26.759v247.402c0,14.78-11.98,26.759-26.759,26.759H330.599"></path>					<line style="fill:none;stroke:#000000;stroke-width:15;stroke-linecap:round;stroke-linejoin:round;stroke-miterlimit:10;" x1="160.764" y1="246.204" x2="160.764" y2="212.355"></line>		<path style="fill:none;stroke:#000000;stroke-width:15;stroke-linecap:round;stroke-linejoin:round;stroke-miterlimit:10;" d="&#10;&#9;&#9;&#9;M472.771,197.424v97.18c0,7.63-6.19,13.82-13.82,13.82h-128.35"></path>		<path style="fill:none;stroke:#000000;stroke-width:15;stroke-linecap:round;stroke-linejoin:round;stroke-miterlimit:10;" d="&#10;&#9;&#9;&#9;M202.931,67.504h256.02c7.63,0,13.82,6.19,13.82,13.82v81.1"></path>		<path style="fill:none;stroke:#000000;stroke-width:15;stroke-linecap:round;stroke-linejoin:round;stroke-miterlimit:10;" d="&#10;&#9;&#9;&#9;M330.599,409.508h64.308c8.67,0,15.699-7.03,15.699-15.699c0-4.34-1.76-8.26-4.6-11.11c-2.84-2.84-6.76-4.6-11.1-4.6h-64.308"></path>					<polyline style="fill:none;stroke:#000000;stroke-width:15;stroke-linecap:round;stroke-linejoin:round;stroke-miterlimit:10;" points="&#10;&#9;&#9;&#9;330.599,378.1 364.957,378.1 364.957,338.421 330.599,338.421 &#9;&#9;"></polyline>	</g>	<path style="fill:none;stroke:#000000;stroke-width:15;stroke-linecap:round;stroke-linejoin:round;stroke-miterlimit:10;" d="&#10;&#9;&#9;M104.651,504.484h210.54c15.11,0,28.19-10.51,31.45-25.27l0.94-4.27c1.33-6.05-3.28-11.78-9.47-11.78h-319.2&#10;&#9;&#9;c-6.2,0-10.8,5.73-9.47,11.78l0.94,4.27c3.25,14.76,16.33,25.27,31.45,25.27h27.82"></path>	<path style="fill:none;stroke:#000000;stroke-width:15;stroke-linecap:round;stroke-linejoin:round;stroke-miterlimit:10;" d="&#10;&#9;&#9;M313.734,246.206H42.131c-9.315,0-16.866,7.551-16.866,16.866v200.089H330.6V263.073&#10;&#9;&#9;C330.6,253.757,323.049,246.206,313.734,246.206z"></path>	<path style="fill:none;stroke:#000000;stroke-width:15;stroke-linecap:round;stroke-linejoin:round;stroke-miterlimit:10;" d="&#10;&#9;&#9;M55.263,417.022V292.346c0-8.914,7.226-16.141,16.141-16.141h213.057c8.914,0,16.141,7.226,16.141,16.141v124.676&#10;&#9;&#9;c0,8.914-7.226,16.141-16.141,16.141H71.403C62.489,433.162,55.263,425.936,55.263,417.022z"></path>	<path style="fill:none;stroke:#000000;stroke-width:15;stroke-linecap:round;stroke-linejoin:round;stroke-miterlimit:10;" d="&#10;&#9;&#9;M180.793,212.353H77.448c-12.226,0-22.138-9.911-22.138-22.138V29.638C55.31,17.411,65.221,7.5,77.448,7.5h103.346&#10;&#9;&#9;c12.226,0,22.138,9.911,22.138,22.138v160.578C202.931,202.442,193.02,212.353,180.793,212.353z"></path>	<path style="fill:none;stroke:#000000;stroke-width:15;stroke-linecap:round;stroke-linejoin:round;stroke-miterlimit:10;" d="&#10;&#9;&#9;M85.311,107.964v65.36c0,4.99,4.04,9.03,9.03,9.03h69.56c4.99,0,9.03-4.04,9.03-9.03V46.534c0-4.99-4.04-9.03-9.03-9.03h-69.56&#10;&#9;&#9;c-4.99,0-9.03,4.04-9.03,9.03v26.43"></path>			<polyline style="fill:none;stroke:#000000;stroke-width:15;stroke-linecap:round;stroke-linejoin:round;stroke-miterlimit:10;" points="&#10;&#9;&#9;147.542,356.993 179.442,388.893 215.616,327.629 &#9;"></polyline>			<polyline style="fill:none;stroke:#000000;stroke-width:15;stroke-linecap:round;stroke-linejoin:round;stroke-miterlimit:10;" points="&#10;&#9;&#9;282.73,178.657 314.63,210.557 350.804,149.293 &#9;"></polyline>			<polyline style="fill:none;stroke:#000000;stroke-width:15;stroke-linecap:round;stroke-linejoin:round;stroke-miterlimit:10;" points="&#10;&#9;&#9;105.757,110.621 127.654,132.518 152.484,90.465 &#9;"></polyline></g></svg>